HIERARCHY
ROOT Hips
{
	OFFSET 0.000000 0.000000 0.000000 
	CHANNELS 6 Xposition Yposition Zposition Yrotation Zrotation Xrotation 
	JOINT Lumbar
	{
		OFFSET 0.000000 0.000000 0.000000 
		CHANNELS 3 Zrotation Xrotation Yrotation
		JOINT Neck
		{
			OFFSET 0.000000 0.445665 0.000000 
			CHANNELS 3 Zrotation Xrotation Yrotation
			End Site
			{
				OFFSET 0.000000 0.227535 0.000000 
			}
		}
		JOINT RightShoulder
		{
			OFFSET 0.019635 0.377685 0.194865 
			CHANNELS 3 Zrotation Xrotation Yrotation
			JOINT RightElbow
			{
				OFFSET 0.000000 -0.243375 0.000000 
				CHANNELS 2 Zrotation Yrotation
				JOINT RightWrist
				{
					OFFSET 0.000000 -0.264825 0.000000 
					CHANNELS 2 Zrotation Xrotation
					End Site
					{
						OFFSET 0.006600 -0.176220 0.000990 
					}
				}
			}
		}
		JOINT LeftShoulder
		{
			OFFSET 0.019635 0.377685 -0.194865 
			CHANNELS 3 Zrotation Xrotation Yrotation
			JOINT LeftElbow
			{
				OFFSET 0.000000 -0.243375 0.000000 
				CHANNELS 2 Zrotation Yrotation
				JOINT LeftWrist
				{
					OFFSET 0.000000 -0.264825 0.000000 
					CHANNELS 2 Zrotation Xrotation
					End Site
					{
						OFFSET 0.006600 -0.176220 -0.000990 
					}
				}
			}
		}
	}
	JOINT RightHip
	{
		OFFSET 0.052140 -0.069960 0.075570 
		CHANNELS 3 Zrotation Xrotation Yrotation
		JOINT RightKnee
		{
			OFFSET 0.000000 -0.402270 0.000000 
			CHANNELS 1 Zrotation
			JOINT RightAnkle
			{
				OFFSET 0.000000 -0.404085 0.000000 
				CHANNELS 3 Zrotation Xrotation Yrotation
				End Site
				{
					OFFSET 0.204105 -0.089430 0.008415 
				}
			}
		}
	}
	JOINT LeftHip
	{
		OFFSET 0.052140 -0.069960 -0.075570 
		CHANNELS 3 Zrotation Xrotation Yrotation
		JOINT LeftKnee
		{
			OFFSET 0.000000 -0.402270 0.000000 
			CHANNELS 1 Zrotation
			JOINT LeftAnkle
			{
				OFFSET 0.000000 -0.404085 0.000000 
				CHANNELS 3 Zrotation Xrotation Yrotation
				End Site
				{
					OFFSET 0.204105 -0.089430 -0.008415 
				}
			}
		}
	}
}
MOTION
Frames: 11
Frame Time: 0.02
0.42918 -0.174 -1.05884 -261.1966 -71.54328 -14.65288 -13.81271 3.76654 -3.57609 -28.41476 -18.35183 -2.11994 100.79419 3.33704 -15.94401 6.29514 75.22932 -1.87379 -5.03151 93.92751 14.44092 -52.72064 14.83858 -83.83624 -10.83544 1.65437 97.14664 -4.54123 -19.13574 -79.27572 -6.1424 -3.64113 -3.97893 122.29291 12.38678 -10.73644 -76.32202 -7.96946 3.00836 3.76871
0.4271 -0.17177 -1.0596 -262.34239 -71.71999 -16.02294 -13.79438 4.02527 -4.36258 -28.56491 -18.6051 -2.11994 100.52896 5.00371 -5.22228 6.90195 76.19961 -1.53547 -4.6737 94.39646 16.03562 -53.23631 14.78537 -82.36031 -10.09242 0.80255 97.03031 -4.33992 -19.38618 -78.64638 -6.13121 -3.62399 -3.9695 122.43433 12.61365 -10.7243 -75.99713 -7.95466 2.98725 3.75607
0.42496 -0.16904 -1.06036 -263.61675 -71.86022 -17.47708 -13.80878 4.23095 -5.20456 -28.70034 -18.84642 -2.11994 100.18318 6.72128 6.39562 7.75705 77.62485 -0.85504 -4.32748 94.90046 17.81255 -53.86821 14.64899 -80.68798 -9.29304 -0.03087 96.83215 -4.15104 -19.68271 -77.8964 -6.1179 -3.60272 -3.95774 122.53035 13.1251 -10.38013 -75.58084 -7.93437 2.9409 3.72978
0.42285 -0.16656 -1.06111 -264.82217 -72.01488 -18.8698 -13.80571 4.44867 -5.99037 -28.84233 -19.09483 -2.11994 99.87902 8.37016 17.27368 8.47609 78.80989 -0.36105 -3.99076 95.36809 19.46319 -54.41929 14.55476 -79.18094 -8.54292 -0.85354 96.67314 -3.9572 -19.94551 -77.2067 -6.10569 -3.58358 -3.94721 122.63995 13.49105 -10.20051 -75.21272 -7.91731 2.90844 3.71107
0.42075 -0.16394 -1.06191 -266.08541 -72.1806 -20.37381 -13.8113 4.72028 -6.91221 -28.98984 -19.3431 -2.11994 99.54997 10.23139 29.67505 9.29126 80.13187 0.25477 -3.5872 95.92217 21.3134 -55.07931 14.44293 -77.34896 -7.68514 -1.76868 96.50636 -3.75377 -20.26096 -76.48643 -6.09283 -3.56332 -3.93598 122.77977 13.91867 -9.97717 -74.81304 -7.89791 2.86659 3.68701
0.4186 -0.16152 -1.0626 -267.25219 -72.31481 -21.66044 -13.80687 4.86642 -7.56168 -29.11994 -19.58499 -2.11994 99.25678 11.65254 39.05582 9.96337 81.27604 0.70176 -3.32638 96.30458 22.78388 -55.5456 14.34947 -76.14353 -7.04106 -2.47975 96.33724 -3.57732 -20.47974 -75.80536 -6.08083 -3.5444 -3.92563 122.84703 14.28793 -9.76003 -74.45889 -7.88177 2.83787 3.6706
0.41627 -0.15976 -1.06303 -268.13624 -72.35851 -22.32969 -13.77535 4.673 -7.44755 -29.2119 -19.82647 -2.11994 99.06077 11.87375 40.05492 10.21223 81.84652 0.59575 -3.46878 96.20244 23.17475 -55.42285 14.30457 -76.78145 -7.00327 -2.6647 96.16734 -3.45334 -20.40009 -75.24661 -6.0721 -3.53077 -3.91857 122.70794 14.4275 -9.64847 -74.2519 -7.87601 2.85281 3.6794
0.41388 -0.15824 -1.06335 -268.91295 -72.37309 -22.77365 -13.73199 4.3559 -7.05654 -29.2851 -20.05834 -2.11994 98.90776 11.64348 37.9351 10.30406 82.21861 0.30989 -3.75304 95.92664 23.17219 -55.10654 14.28439 -78.04674 -7.18326 -2.63857 95.99992 -3.35984 -20.22448 -74.73547 -6.06429 -3.51861 -3.91247 122.4999 14.4997 -9.55076 -74.0949 -7.87355 2.88144 3.69614
0.41154 -0.15663 -1.06371 -269.72885 -72.40944 -23.31812 -13.68817 4.09869 -6.78988 -29.36204 -20.2846 -2.11994 98.7496 11.59816 37.11178 10.44602 82.66287 0.10953 -3.96528 95.73153 23.3392 -54.89709 14.26779 -78.98248 -7.26304 -2.68493 95.84104 -3.26617 -20.107 -74.21317 -6.05578 -3.50536 -3.9057 122.33487 14.60245 -9.44091 -73.91568 -7.86954 2.90299 3.70873
0.40911 -0.1549 -1.06409 -270.59528 -72.41087 -23.87837 -13.66788 3.82353 -6.53044 -29.45856 -20.55322 -2.11994 98.52838 11.63688 36.83289 10.68258 83.19612 -0.09522 -4.20953 95.53011 23.55324 -54.61326 14.18759 -80.09555 -7.34568 -2.82545 95.6402 -3.11709 -19.93305 -73.64125 -6.04822 -3.49349 -3.89968 122.12064 14.71352 -9.34702 -73.72968 -7.86585 2.92757 3.72325
0.40687 -0.1535 -1.0644 -271.32258 -72.47564 -24.34524 -13.59814 3.55785 -6.19077 -29.51026 -20.73077 -2.11994 98.4491 11.39694 34.66628 10.68612 83.49439 -0.33764 -4.42086 95.3002 23.57165 -54.43509 14.24455 -80.9949 -7.47517 -2.7253 95.52628 -3.088 -19.84927 -73.18693 -6.03916 -3.47946 -3.89253 121.99103 14.78982 -9.22418 -73.57268 -7.86201 2.94907 3.73564
